<svg id="Layer_1" data-name="Layer 1" xmlns="http://www.w3.org/2000/svg" xmlns:xlink="http://www.w3.org/1999/xlink" viewBox="0 0 1080 1080"><defs><style>.cls-1{fill:#046195;}.cls-2{fill:url(#linear-gradient);}.cls-3{fill:url(#linear-gradient-2);}.cls-4{fill:url(#linear-gradient-3);}.cls-5{fill:url(#linear-gradient-4);}.cls-6{fill:url(#linear-gradient-5);}</style><linearGradient id="linear-gradient" x1="786.86" y1="133.64" x2="357.71" y2="876.96" gradientUnits="userSpaceOnUse"><stop offset="0" stop-color="#35c0d5"/><stop offset="1" stop-color="#582c7e"/></linearGradient><linearGradient id="linear-gradient-2" x1="665.37" y1="324.65" x2="639.41" y2="369.61" gradientTransform="translate(64.03 -100.02) rotate(9.22)" xlink:href="#linear-gradient"/><linearGradient id="linear-gradient-3" x1="679.02" y1="282.72" x2="666.24" y2="304.85" gradientTransform="translate(686.65 -440.07) rotate(67.5)" xlink:href="#linear-gradient"/><linearGradient id="linear-gradient-4" x1="361.09" y1="575.94" x2="335.12" y2="620.91" gradientTransform="matrix(0.83, 0.55, -0.55, 0.83, 389.38, -92.65)" xlink:href="#linear-gradient"/><linearGradient id="linear-gradient-5" x1="329.68" y1="638.74" x2="316.91" y2="660.87" xlink:href="#linear-gradient"/></defs><path class="cls-1" d="M111,972.79H64v19.32h52.37l-3.36,22.37H35v-103h78v22.37H64v16.58H111Z"/><path class="cls-1" d="M153.63,933.84H124.19V911.47h88.86v22.37h-29.2v80.64H153.63Z"/><path class="cls-1" d="M225.51,911.47h30.28V950h31.44V911.47h30.32v103H287.23v-42.1H255.79v42.1H225.51Z"/><path class="cls-1" d="M369.15,911.47v103H338.87v-103Z"/><path class="cls-1" d="M490.07,962.89c0,29.13-17.55,53.51-52.83,53.51-34.65,0-51.39-24.22-51.39-53.37,0-29.65,18.37-53.48,52.94-53.48C471.25,909.55,490.07,932.07,490.07,962.89Zm-73.1-.31c0,18.91,6.29,32.07,21.22,32.07,15.69,0,20.87-14,20.87-31.52,0-18.79-5.5-31.83-21.27-31.83C423.13,931.3,417,943.4,417,962.58Z"/><path class="cls-1" d="M633.14,980.6c-3.78,21.53-19.58,35.8-47.85,35.8-33.74,0-50-22.78-50-52.67,0-29.16,16.11-54.18,51.5-54.18,30.27,0,44,17.6,46.08,35.43h-30c-1.37-7.44-5.67-14.22-16.82-14.22-14.67,0-19.68,13.93-19.68,31.91,0,16.34,4.17,32.46,20,32.46,12,0,15.36-8.71,16.64-14.53Z"/><path class="cls-1" d="M647.55,911.47h30.27v80.64h48.55l-3.27,22.37H647.55Z"/><path class="cls-1" d="M836.59,962.89c0,29.13-17.55,53.51-52.84,53.51-34.64,0-51.39-24.22-51.39-53.37,0-29.65,18.37-53.48,52.94-53.48C817.77,909.55,836.59,932.07,836.59,962.89Zm-73.1-.31c0,18.91,6.28,32.07,21.22,32.07,15.69,0,20.86-14,20.86-31.52,0-18.79-5.49-31.83-21.26-31.83C769.65,931.3,763.49,943.4,763.49,962.58Z"/><path class="cls-1" d="M882.52,911.47V974.8c0,14.75,7.27,19.81,16.41,19.81,9.91,0,15.67-6,15.67-19.81V911.47h30.32v60.29c0,34.23-20.25,44.64-46.5,44.64-27.2,0-46.12-11-46.12-44.5V911.47Z"/><path class="cls-1" d="M965.2,911.47h44.26c32.78,0,51.8,20.74,51.8,50.37s-18.53,52.64-52.27,52.64H965.2Zm30.22,81.15H1007c16.39,0,23.1-11.49,23.1-30.78,0-17.06-6.26-28.51-22.74-28.51H995.42Z"/><polygon class="cls-1" points="34.99 911.47 13.9 913.76 34.99 918.08 34.99 911.47"/><polygon class="cls-1" points="34.99 923.43 13.9 925.72 34.99 930.04 34.99 923.43"/><polygon class="cls-1" points="34.99 935.4 13.9 937.69 34.99 942.01 34.99 935.4"/><polygon class="cls-1" points="34.99 947.36 13.9 949.65 34.99 953.97 34.99 947.36"/><polygon class="cls-1" points="34.99 959.32 13.9 961.62 34.99 965.94 34.99 959.32"/><polygon class="cls-1" points="34.99 971.29 13.9 973.58 34.99 977.9 34.99 971.29"/><polygon class="cls-1" points="34.99 983.25 13.9 985.54 34.99 989.86 34.99 983.25"/><polygon class="cls-1" points="34.99 995.22 13.9 997.51 34.99 1001.83 34.99 995.22"/><polygon class="cls-1" points="34.99 1007.18 13.9 1009.47 34.99 1013.79 34.99 1007.18"/><path class="cls-2" d="M870.75,362h-29.5A308,308,0,0,0,647.94,163.39l8.17-20a39.93,39.93,0,1,0-30.05-12.25l-13.49,33a16,16,0,0,0-2.39,5c-.16.59-.28,1.17-.38,1.76L382.38,728H209.25c-92,0-166.8-74.83-166.8-166.8s74.83-166.81,166.8-166.81h58.51a16.22,16.22,0,0,0,15.67-12C311.16,279,398.94,200.15,503.92,182.91L380.49,488.77a40,40,0,1,0,29.91,12.58l128-317.21a25.67,25.67,0,0,0-26.87-35.08,307.13,307.13,0,0,0-256,212.9H209.25C99.38,362,10,451.35,10,561.22S99.38,760.47,209.25,760.47H369.13l-4.48,11a39.93,39.93,0,1,0,30,12.25l241-590.21A275.25,275.25,0,0,1,813.41,382.39a16.21,16.21,0,0,0,15.67,12h41.67c92,0,166.8,74.83,166.8,166.81S962.72,728,870.75,728H520l107-268.68a39.89,39.89,0,1,0-30.15-12L486.25,725a25.93,25.93,0,0,0,24.08,35.51H870.75c109.86,0,199.25-89.39,199.25-199.25S980.61,362,870.75,362Z"/><circle class="cls-3" cx="652.39" cy="347.13" r="25.96" transform="translate(-47.18 108.98) rotate(-9.22)"/><circle class="cls-4" cx="672.63" cy="293.78" r="12.77" transform="translate(143.8 802.78) rotate(-67.5)"/><circle class="cls-5" cx="348.1" cy="598.42" r="25.96" transform="translate(-273.03 292.67) rotate(-33.6)"/><path class="cls-6" d="M310.57,648.69a12.77,12.77,0,1,0,13.84-11.61A12.77,12.77,0,0,0,310.57,648.69Z"/><polygon class="cls-1" points="566.93 911.47 506.04 913.76 566.93 918.08 566.93 911.47"/><polygon class="cls-1" points="554.08 923.43 506.04 925.72 554.08 930.04 554.08 923.43"/><polygon class="cls-1" points="554.08 935.4 506.04 937.69 554.08 942.01 554.08 935.4"/><polygon class="cls-1" points="554.08 947.36 506.04 949.65 554.08 953.97 554.08 947.36"/><polygon class="cls-1" points="554.08 959.32 506.04 961.62 554.08 965.94 554.08 959.32"/><polygon class="cls-1" points="554.08 971.29 506.04 973.58 554.08 977.9 554.08 971.29"/><polygon class="cls-1" points="554.08 983.25 506.04 985.54 554.08 989.86 554.08 983.25"/><polygon class="cls-1" points="554.08 995.22 506.04 997.51 554.08 1001.83 554.08 995.22"/><polygon class="cls-1" points="566.93 1007.18 506.04 1009.47 566.93 1013.79 566.93 1007.18"/></svg>